<svg xmlns="http://www.w3.org/2000/svg" viewBox="0 0 60 60"><defs><style>.cls-1{opacity:.3}.cls-2{opacity:.6}.cls-3{fill:#a4a4a4}.cls-4{fill:#f0f0f0}.cls-5{fill:none}</style></defs><title>icon_driverClass</title><g id="Layer_2" data-name="Layer 2"><g id="Game_Stats" data-name="Game Stats"><path class="cls-1" d="M50 53.66V57H10v-3.34z"/><g class="cls-2"><path class="cls-3" d="M12.3 23.56a.55.55 0 0 1-.55-.55 20 20 0 0 1 20-20 .55.55 0 0 1 0 1.09A18.94 18.94 0 0 0 12.84 23a.55.55 0 0 1-.54.56z"/><path class="cls-4" d="M15.15 36.37a.54.54 0 0 1-.39-.16 20 20 0 0 1 0-28.29.55.55 0 1 1 .77.77 18.94 18.94 0 0 0 0 26.75.55.55 0 0 1-.39.93z"/><path class="cls-3" d="M26.39 43.63a20 20 0 0 1-20-20 .55.55 0 1 1 1.09 0 18.91 18.91 0 0 0 18.91 18.91.55.55 0 1 1 0 1.09z"/><path class="cls-4" d="M26 46.7a19.87 19.87 0 0 1-14.15-5.86.55.55 0 1 1 .77-.77 18.92 18.92 0 0 0 26.75 0 .55.55 0 1 1 .77.77A19.87 19.87 0 0 1 26 46.7z"/><path class="cls-3" d="M27.32 49.39a.55.55 0 0 1 0-1.09 18.94 18.94 0 0 0 18.92-18.92.55.55 0 1 1 1.09 0 20 20 0 0 1-20.01 20.01z"/><path class="cls-4" d="M44 44.36a.55.55 0 0 1-.39-.93 18.91 18.91 0 0 0 0-26.75.55.55 0 0 1 0-.77.55.55 0 0 1 .77 0 20 20 0 0 1 0 28.29.54.54 0 0 1-.38.16z"/><path class="cls-3" d="M52.74 33.1h-.1a.55.55 0 0 1-.44-.64 18.94 18.94 0 0 0-15.1-22.09.55.55 0 0 1 .1-1.08h.1a20 20 0 0 1 16 23.36.54.54 0 0 1-.56.45z"/><path class="cls-4" d="M50.87 15.81a.55.55 0 0 1-.45-.24A18.79 18.79 0 0 0 38.3 7.66a19.16 19.16 0 0 0-3.53-.33 18.78 18.78 0 0 0-10.63 3.3.55.55 0 1 1-.62-.9 19.86 19.86 0 0 1 11.25-3.5 20.27 20.27 0 0 1 3.74.35A19.87 19.87 0 0 1 51.32 15a.55.55 0 0 1-.45.85z"/></g><path class="cls-5" d="M0 0h60v60H0z"/></g></g></svg>