<?xml version="1.0" encoding="UTF-8" standalone="no"?>
<svg
   xmlns:dc="http://purl.org/dc/elements/1.1/"
   xmlns:cc="http://creativecommons.org/ns#"
   xmlns:rdf="http://www.w3.org/1999/02/22-rdf-syntax-ns#"
   xmlns:svg="http://www.w3.org/2000/svg"
   xmlns="http://www.w3.org/2000/svg"
   viewBox="0 0 612 792"
   id="svg17"
   height="792"
   width="612"
   version="1.1">
  <metadata
     id="metadata23">
    <rdf:RDF>
      <cc:Work
         rdf:about="">
        <dc:format>image/svg+xml</dc:format>
        <dc:type
           rdf:resource="http://purl.org/dc/dcmitype/StillImage" />
      </cc:Work>
    </rdf:RDF>
  </metadata>
  <defs
     id="defs21" />
  <g
     id="Layer1000">
    <path
       id="path2"
       style="fill:#f9c100;fill-rule:evenodd"
       d="m 325.2282,609.0802 214.149,-76.5426 c 41.9503,-13.3111 59.5231,-47.0269 17.146,-63.5827 C 499.8556,444.015 415.7186,442.5008 375.7541,453.9985 l -50.2655,16.6146 -0.1445,76.8904 0.0443,-23.4323 125.7362,-44.6367 c 16.6051,-6.6262 70.8282,4.8396 44.0896,16.157 l -169.8869,60.7233 z" />
    <path
       id="path4"
       style="fill:#29b19b;fill-rule:evenodd"
       d="m 329.1298,469.4096 -3.6412,1.2035 -0.1445,76.8904 0.0443,-23.4323 85.1344,-30.223 z m 130.0708,39.0545 -133.8733,47.8507 -0.005,2.2748 74.1329,23.9592 139.9215,-50.0112 z" />
    <path
       id="path6"
       style="fill:#0082c2;fill-rule:evenodd"
       d="m 539.3772,532.5376 c 41.9503,-13.3111 59.5231,-47.0269 17.146,-63.5827 C 499.8556,444.015 415.7186,442.5008 375.7541,453.9985 l -46.6243,15.4111 81.393,24.4386 40.6018,-14.4137 c 16.6051,-6.6262 70.8282,4.8396 44.0896,16.157 l -36.0136,12.8726 z" />
    <path
       id="path8"
       style="fill:#f9c500;fill-rule:evenodd"
       d="M 235.0223,416.4611 72.6228,474.5069 c -41.9503,13.311 -59.5231,47.0269 -17.146,63.5827 55.6484,24.4912 137.7839,26.3902 178.5671,15.5623 l 0.3719,-52.1488 -73.5404,26.1069 c -16.6051,6.6261 -70.8282,-4.8397 -44.0896,-16.1571 l 117.8596,-42.1267 z" />
    <path
       id="path10"
       style="fill:#25b19c;fill-rule:evenodd"
       d="M 197.3292,429.9334 72.6228,474.5069 c -1.2387,0.3931 -2.4539,0.8058 -3.6496,1.2331 l 77.5798,25.0731 88.0924,-31.4869 0.201,-28.226 -37.3677,-11.22 z m 36.8895,99.2121 0.1971,-27.6424 -40.8533,14.5027 z" />
    <path
       id="path12"
       style="fill:#0081c1;fill-rule:evenodd"
       d="m 235.0223,416.4611 -37.5436,13.4191 37.3677,11.22 z" />
    <path
       id="path14"
       style="fill:#e30016;fill-rule:evenodd"
       d="m 233.8423,581.8812 91.3859,27.199 0.6351,-338.3625 c -0.4402,-29.2576 35.8679,-18.8474 33.0499,8.8555 v 140.0856 c 43.3263,32.6753 105.6221,0.9106 103.3272,-63.7922 0.4665,-67.1472 -21.988,-112.9084 -95.5844,-134.4797 L 236.6883,182.9198 Z" />
  </g>
</svg>
