<svg xmlns="http://www.w3.org/2000/svg" viewBox="0 0 60 60"><defs><style>.cls-1{opacity:.6}.cls-2{fill:#f0f0f0}.cls-3{fill:#a4a4a4}.cls-4{fill:none}</style></defs><title>icon_mannerPoint</title><g id="Layer_2" data-name="Layer 2"><g id="Game_Stats" data-name="Game Stats"><g class="cls-1"><path class="cls-2" d="M30.29 43.93A35.52 35.52 0 0 0 35 46.35c.93.39 3.28.67 2.69 1.91a3.31 3.31 0 0 1-3.5 1.32c-2-1-3.9-2-5.86-3a2.66 2.66 0 0 0-2.22-.47 36.56 36.56 0 0 0 5.42 3.19c2.87 1.5 2.84 1.53-.09 3a2.89 2.89 0 0 1-3-.24C17.31 46 11.34 37.15 9 26.24a29 29 0 0 1-.83-9.37c1 1.34 1.93 2.72 3 4 4.25 5.24 9.8 9.27 16.06 12.63.45.24 1 .45 1 1s-1 .85-1.5 1.07c-1.33.55-2.34.83-3.68 1.35-1.58.61-1.64.93-.35 2a8.18 8.18 0 0 0 8.71.6c4.19-2.22 4.14-2.1 9.48-.43 1.05.33 2.15.63 3 .84 1.16.29 1.1.72.63 1.64-1.16 2.24-1.58 2.15-4.19 1.23l-4.25-1.53c-.58-.21-1.23-.44-1.73 0a27.47 27.47 0 0 0 6.28 2.5 1.61 1.61 0 0 1 .77.35c.34.36.13.9-.17 1.29a3.3 3.3 0 0 1-2.88 1.27 5.14 5.14 0 0 1-1.44-.48l-5-2.24c-.51-.24-1.27-.44-1.62-.03z"/><path class="cls-3" d="M52.59 16.48a58.19 58.19 0 0 1-3.2 16q-.83 2.18-1.88 4.28c-.51 1-1 2.65-2.4 2.51A22 22 0 0 1 41.06 38a26.71 26.71 0 0 0-4.46-1.3c-1.52-.19-2.67.63-3.95 1.31a12.4 12.4 0 0 1-4.11 1.41 8.07 8.07 0 0 1-3.68-.3c-.43-.15-1.23-.38-1.42-.85-.31-.77.71-1 1.24-1.17a57.68 57.68 0 0 0 16-8.41A53.1 53.1 0 0 0 48 22a33.89 33.89 0 0 0 4.61-5.52"/></g><path class="cls-4" d="M0 0h60v60H0z"/></g></g></svg>